<svg id="svg" version="1.1" width="400" height="399.8491135420596" viewBox="0 0 400 399.8491135420596" xmlns="http://www.w3.org/2000/svg" xmlns:xlink="http://www.w3.org/1999/xlink" ><g id="svgg"><path id="path0" d="M92.385 78.083 C 92.386 78.633,92.417 78.838,92.454 78.539 C 92.491 78.239,92.490 77.789,92.452 77.539 C 92.414 77.288,92.384 77.533,92.385 78.083 M92.385 80.417 C 92.386 80.967,92.417 81.172,92.454 80.872 C 92.491 80.572,92.490 80.122,92.452 79.872 C 92.414 79.622,92.384 79.867,92.385 80.417 M200.069 226.250 C 200.069 227.900,200.094 228.552,200.124 227.700 C 200.155 226.847,200.154 225.497,200.124 224.700 C 200.093 223.902,200.069 224.600,200.069 226.250 M200.067 239.583 C 200.068 241.050,200.093 241.628,200.124 240.867 C 200.155 240.106,200.155 238.906,200.124 238.200 C 200.093 237.494,200.067 238.117,200.067 239.583 M215.458 250.124 C 216.398 250.154,217.935 250.154,218.875 250.124 C 219.815 250.095,219.046 250.070,217.167 250.070 C 215.287 250.070,214.519 250.095,215.458 250.124 M241.384 388.791 C 242.467 388.820,244.192 388.820,245.218 388.791 C 246.244 388.762,245.358 388.738,243.250 388.738 C 241.142 388.738,240.302 388.762,241.384 388.791 M282.551 388.791 C 283.633 388.820,285.358 388.820,286.384 388.791 C 287.410 388.762,286.525 388.738,284.417 388.738 C 282.308 388.738,281.469 388.762,282.551 388.791 " stroke="none" fill="#000000" fill-rule="evenodd"></path><path id="path1" d="M200.000 233.083 L 200.000 237.000 210.875 236.999 C 222.350 236.998,222.419 236.994,223.690 236.188 C 225.907 234.782,225.789 230.672,223.500 229.549 L 222.750 229.180 211.375 229.174 L 200.000 229.167 200.000 233.083 M199.962 248.330 L 199.917 254.500 203.936 254.500 C 210.150 254.500,212.019 253.692,212.837 250.651 L 213.013 250.000 217.287 250.000 C 222.371 250.000,223.148 249.861,224.255 248.754 C 225.906 247.102,225.585 244.000,223.628 242.705 L 222.941 242.250 211.475 242.205 L 200.008 242.160 199.962 248.330 M20.413 383.750 C 20.413 392.550,20.434 396.126,20.458 391.696 C 20.483 387.266,20.483 380.066,20.458 375.696 C 20.434 371.326,20.413 374.950,20.413 383.750 M69.905 375.167 C 69.905 377.412,69.929 378.331,69.958 377.208 C 69.987 376.085,69.987 374.248,69.958 373.125 C 69.929 372.002,69.905 372.921,69.905 375.167 " stroke="none" fill="#333333" fill-rule="evenodd"></path><path id="path2" d="M94.333 0.280 C 93.004 0.404,90.792 0.698,89.417 0.933 C 88.042 1.168,86.054 1.496,85.000 1.662 C 82.992 1.977,76.567 3.517,75.026 4.052 L 74.468 4.245 74.609 5.498 C 74.990 8.882,74.678 12.431,73.743 15.367 C 73.517 16.074,73.333 16.748,73.333 16.866 C 73.333 17.247,71.628 20.546,70.765 21.833 C 68.929 24.574,66.648 26.895,64.273 28.440 C 63.618 28.866,62.821 29.387,62.500 29.598 C 55.272 34.361,43.297 33.418,35.758 27.494 L 34.648 26.622 34.119 27.103 C 30.903 30.026,27.187 33.876,24.667 36.897 C 24.162 37.501,23.469 38.303,23.125 38.678 C 22.781 39.054,22.500 39.435,22.500 39.526 C 22.500 39.616,22.386 39.804,22.247 39.944 C 21.919 40.271,19.675 43.386,19.279 44.063 C 19.112 44.349,18.884 44.658,18.774 44.750 C 18.592 44.901,18.200 45.467,16.300 48.323 C 15.960 48.833,15.623 49.325,15.550 49.417 C 15.282 49.753,14.534 50.937,14.130 51.667 C 13.901 52.079,13.228 53.279,12.634 54.333 C 10.445 58.218,7.518 64.542,7.440 65.555 C 7.424 65.762,7.772 66.084,8.518 66.555 C 10.825 68.010,13.331 70.276,14.726 72.167 C 15.098 72.671,15.537 73.229,15.701 73.406 C 15.865 73.584,16.000 73.796,16.000 73.877 C 16.000 73.959,16.300 74.539,16.667 75.168 C 17.436 76.484,18.709 79.582,18.971 80.772 C 19.069 81.218,19.237 81.996,19.344 82.500 C 20.010 85.625,19.587 91.609,18.497 94.500 C 18.203 95.279,17.856 96.206,17.726 96.560 C 16.770 99.158,13.456 103.490,10.857 105.539 C 10.248 106.019,9.651 106.507,9.530 106.623 C 9.409 106.739,9.247 106.833,9.172 106.833 C 9.096 106.833,8.632 107.106,8.142 107.439 C 7.651 107.773,6.837 108.224,6.333 108.443 C 5.829 108.661,5.229 108.939,5.000 109.060 C 4.327 109.416,2.682 109.941,1.268 110.251 L -0.047 110.539 0.053 112.978 C 0.169 115.785,0.507 118.624,1.108 121.833 C 1.340 123.071,1.598 124.608,1.682 125.250 C 1.766 125.892,2.059 127.279,2.334 128.333 C 2.609 129.387,2.989 130.925,3.177 131.750 C 3.524 133.266,4.556 136.574,4.803 136.959 C 4.934 137.163,6.093 137.415,10.333 138.159 C 11.479 138.360,14.254 138.867,16.500 139.285 C 18.746 139.702,21.071 140.102,21.667 140.173 C 22.262 140.245,24.137 140.575,25.833 140.908 C 27.529 141.241,29.479 141.590,30.167 141.682 C 30.854 141.774,31.957 141.959,32.618 142.092 C 33.279 142.225,33.925 142.333,34.055 142.333 C 34.277 142.333,34.582 141.005,35.128 137.667 C 35.334 136.401,36.588 131.186,37.291 128.667 C 37.611 127.521,37.967 126.163,38.082 125.648 C 38.257 124.872,39.374 121.197,40.028 119.250 C 41.464 114.971,42.375 112.476,43.523 109.667 C 43.804 108.979,44.173 108.035,44.343 107.568 C 44.512 107.102,44.945 106.089,45.306 105.318 C 45.666 104.547,46.015 103.729,46.082 103.500 C 46.150 103.271,46.417 102.671,46.678 102.167 C 46.938 101.662,47.537 100.425,48.009 99.417 C 50.153 94.834,49.863 95.192,50.678 96.125 C 53.572 99.436,59.206 102.426,64.083 103.238 C 66.080 103.571,71.436 103.487,73.000 103.099 C 81.095 101.089,86.585 96.699,90.272 89.287 C 90.581 88.666,90.833 88.075,90.833 87.974 C 90.833 87.873,91.027 87.256,91.264 86.603 C 92.735 82.549,92.764 75.857,91.328 71.891 C 91.134 71.355,90.831 70.493,90.656 69.975 C 90.291 68.899,88.762 66.128,88.007 65.176 C 87.728 64.824,87.500 64.484,87.500 64.421 C 87.500 63.396,81.770 58.732,78.667 57.232 L 77.250 56.547 80.833 52.960 C 82.804 50.987,85.692 48.233,87.250 46.839 C 90.810 43.656,90.523 43.908,92.000 42.681 C 92.688 42.110,93.415 41.502,93.616 41.330 C 93.818 41.158,94.666 40.484,95.500 39.833 C 96.334 39.182,97.163 38.504,97.342 38.325 C 97.520 38.146,97.741 38.000,97.833 38.000 C 97.924 38.000,98.281 37.751,98.625 37.446 C 98.969 37.141,99.766 36.522,100.396 36.071 C 101.027 35.619,101.927 34.970,102.396 34.628 C 103.207 34.039,108.235 30.604,108.806 30.250 C 108.954 30.158,109.490 29.815,109.996 29.488 C 110.502 29.160,111.367 28.640,111.917 28.332 C 112.467 28.024,112.954 27.721,113.000 27.659 C 113.046 27.597,113.608 27.264,114.250 26.918 C 116.009 25.971,115.994 25.998,115.411 24.917 C 115.139 24.413,114.860 24.001,114.792 24.001 C 114.723 24.000,114.667 23.884,114.667 23.742 C 114.667 23.600,114.418 23.094,114.114 22.617 C 113.810 22.140,113.287 21.251,112.953 20.641 C 112.619 20.032,112.155 19.252,111.923 18.910 C 111.690 18.567,111.500 18.223,111.500 18.145 C 111.500 18.067,111.162 17.477,110.750 16.833 C 110.337 16.190,110.000 15.610,110.000 15.544 C 110.000 15.433,109.186 14.025,107.394 11.037 C 106.994 10.370,106.667 9.790,106.667 9.748 C 106.667 9.671,105.409 7.497,104.451 5.917 C 104.173 5.458,103.714 4.666,103.431 4.156 C 103.148 3.645,102.508 2.499,102.009 1.608 L 101.102 -0.012 98.926 0.021 C 97.729 0.039,95.662 0.156,94.333 0.280 M249.292 101.278 C 248.785 101.339,248.666 101.422,248.662 101.718 C 248.660 101.919,248.375 103.382,248.030 104.969 L 247.403 107.855 245.910 108.364 C 245.089 108.644,244.154 109.075,243.833 109.322 C 243.512 109.569,243.154 109.829,243.037 109.899 C 242.900 109.980,241.892 109.357,240.240 108.170 C 238.214 106.715,237.580 106.338,237.302 106.426 C 236.905 106.553,233.651 109.726,233.368 110.264 C 233.195 110.592,234.884 113.400,236.455 115.397 L 236.812 115.851 236.262 116.801 C 235.824 117.558,234.850 119.950,234.581 120.932 C 234.536 121.096,231.734 121.652,229.292 121.982 C 228.019 122.153,228.090 121.969,228.031 125.249 C 227.983 127.921,228.002 128.144,228.281 128.225 C 228.759 128.363,232.835 129.132,233.697 129.247 C 234.408 129.341,234.488 129.398,234.594 129.884 C 234.799 130.820,235.835 133.382,236.342 134.207 L 236.833 135.004 235.696 136.544 C 235.071 137.391,234.206 138.589,233.774 139.207 L 232.989 140.330 234.978 142.332 C 236.072 143.433,237.053 144.333,237.158 144.333 C 237.352 144.333,237.959 143.941,240.861 141.943 C 242.714 140.667,242.614 140.691,243.634 141.288 C 244.061 141.539,245.312 142.047,246.413 142.417 L 248.417 143.091 248.612 144.421 C 249.434 150.006,249.086 149.582,252.730 149.441 C 255.642 149.328,255.266 149.529,255.598 147.905 C 255.747 147.178,255.969 146.469,256.092 146.330 C 256.215 146.191,256.404 145.387,256.512 144.545 L 256.709 143.013 257.563 142.730 C 258.032 142.575,258.879 142.235,259.444 141.974 C 260.008 141.713,260.515 141.500,260.570 141.500 C 260.625 141.500,260.977 141.277,261.354 141.004 C 262.086 140.474,262.309 140.495,262.903 141.151 C 263.076 141.343,263.290 141.500,263.377 141.500 C 263.513 141.500,264.760 142.397,265.000 142.669 C 265.133 142.819,267.154 144.167,267.247 144.167 C 267.662 144.167,269.588 142.272,271.219 140.258 L 271.689 139.679 270.969 138.535 C 270.574 137.906,270.025 137.078,269.750 136.696 C 267.741 133.903,267.845 134.104,268.176 133.649 C 268.510 133.192,269.180 131.605,269.261 131.083 C 269.289 130.900,269.408 130.364,269.525 129.893 L 269.737 129.035 270.665 128.930 C 271.175 128.872,272.596 128.639,273.822 128.413 C 275.048 128.186,276.077 128.000,276.109 128.000 C 276.359 128.000,276.023 121.634,275.759 121.371 C 275.723 121.334,275.143 121.233,274.472 121.146 C 273.800 121.059,272.387 120.816,271.333 120.606 L 269.417 120.223 269.145 119.403 C 268.996 118.952,268.531 117.933,268.112 117.137 L 267.350 115.691 267.717 115.193 C 268.265 114.449,269.118 113.313,269.542 112.764 C 270.823 111.104,271.055 110.669,270.871 110.267 C 270.605 109.682,268.918 107.926,267.547 106.804 L 266.344 105.820 263.586 107.680 L 260.828 109.539 259.753 109.026 C 259.162 108.744,258.244 108.389,257.714 108.239 C 256.397 107.865,256.438 107.944,255.902 104.689 C 255.640 103.098,255.341 101.680,255.238 101.538 C 255.046 101.276,250.830 101.091,249.292 101.278 M253.952 119.148 C 254.391 119.321,254.787 119.453,254.833 119.441 C 255.401 119.295,257.865 122.037,258.155 123.137 C 260.406 131.666,248.212 135.323,245.740 126.861 C 244.369 122.168,249.467 117.380,253.952 119.148 M186.413 135.013 C 186.279 135.435,186.473 138.406,186.668 138.910 C 186.913 139.543,187.013 138.816,186.964 136.754 C 186.918 134.826,186.695 134.123,186.413 135.013 M365.075 201.470 C 365.014 201.991,364.814 203.129,364.631 204.000 C 364.449 204.871,364.235 205.899,364.156 206.285 C 364.077 206.671,363.903 207.421,363.770 207.952 C 363.636 208.482,363.485 209.217,363.434 209.583 C 363.383 209.950,363.152 210.963,362.921 211.833 C 362.689 212.704,362.339 214.092,362.142 214.917 C 361.945 215.742,361.500 217.354,361.153 218.500 C 360.806 219.646,360.438 220.921,360.336 221.333 C 360.126 222.186,358.842 226.167,358.214 227.917 C 357.983 228.558,357.512 229.871,357.167 230.833 C 356.485 232.735,354.937 236.614,354.361 237.866 C 354.162 238.296,354.000 238.707,354.000 238.779 C 354.000 238.897,352.787 241.577,351.751 243.750 C 351.532 244.208,351.044 245.242,350.667 246.046 L 349.980 247.509 348.448 246.077 C 347.038 244.759,343.933 242.473,343.219 242.227 C 343.053 242.170,342.317 241.837,341.583 241.489 C 334.737 238.233,325.663 238.864,318.917 243.063 C 315.819 244.991,312.144 248.702,310.798 251.260 C 310.657 251.530,310.305 252.173,310.018 252.690 C 309.436 253.736,309.079 254.685,308.209 257.500 L 307.616 259.417 307.607 263.583 C 307.597 268.572,307.838 269.825,309.612 274.000 C 311.531 278.517,315.996 283.103,320.872 285.564 L 322.484 286.378 321.867 287.096 C 321.528 287.492,320.050 289.005,318.583 290.458 C 316.137 292.883,314.841 294.112,312.820 295.917 C 310.750 297.766,310.331 298.134,309.590 298.750 C 309.149 299.117,308.479 299.686,308.102 300.016 C 307.725 300.345,306.254 301.528,304.833 302.645 C 303.412 303.762,301.950 304.924,301.583 305.228 C 301.217 305.532,300.729 305.876,300.500 305.993 C 300.271 306.111,299.858 306.414,299.583 306.667 C 299.308 306.921,298.183 307.741,297.083 308.490 C 295.983 309.239,294.783 310.060,294.417 310.314 C 293.728 310.791,291.454 312.289,290.972 312.583 C 290.822 312.675,290.353 312.975,289.929 313.250 C 287.353 314.924,286.425 315.500,286.309 315.500 C 286.237 315.500,285.714 315.800,285.146 316.167 C 284.579 316.533,284.052 316.833,283.974 316.833 C 283.699 316.833,283.841 317.266,284.385 318.086 C 284.689 318.543,285.263 319.517,285.660 320.250 C 286.057 320.983,286.443 321.623,286.518 321.673 C 286.593 321.722,286.776 322.055,286.926 322.413 C 287.076 322.771,287.481 323.481,287.826 323.991 C 288.171 324.500,288.501 325.068,288.559 325.254 C 288.617 325.439,289.002 326.114,289.415 326.754 C 289.827 327.393,290.165 327.978,290.166 328.053 C 290.166 328.128,290.379 328.503,290.640 328.887 C 290.900 329.270,291.539 330.333,292.060 331.250 C 292.582 332.167,293.076 333.029,293.159 333.167 C 293.242 333.304,293.352 333.529,293.403 333.667 C 293.455 333.804,293.832 334.442,294.242 335.083 C 294.651 335.725,294.989 336.320,294.993 336.405 C 294.997 336.490,295.288 337.015,295.640 337.572 C 296.534 338.984,297.544 340.727,298.196 341.981 L 298.750 343.046 301.083 342.935 C 302.367 342.875,304.092 342.756,304.917 342.673 C 305.742 342.589,306.932 342.477,307.561 342.423 C 308.901 342.310,310.424 342.096,312.167 341.775 C 317.578 340.780,318.372 340.605,323.320 339.324 C 325.640 338.724,325.403 339.077,325.166 336.574 C 324.378 328.255,327.954 320.287,334.827 315.046 C 335.335 314.659,335.830 314.276,335.927 314.194 C 336.254 313.920,339.412 312.251,339.833 312.130 C 340.063 312.065,341.112 311.712,342.167 311.346 C 344.754 310.449,348.843 310.141,352.838 310.543 C 356.351 310.896,362.159 313.527,364.625 315.881 L 365.167 316.399 365.792 315.824 C 367.272 314.464,372.518 309.152,373.425 308.095 C 373.971 307.460,374.720 306.598,375.090 306.179 C 376.069 305.070,377.677 302.982,379.271 300.750 C 379.794 300.017,380.275 299.379,380.338 299.333 C 380.402 299.287,380.570 299.025,380.713 298.750 C 380.855 298.475,381.120 298.093,381.302 297.901 C 381.483 297.709,382.371 296.444,383.274 295.090 C 384.177 293.736,384.976 292.543,385.048 292.439 C 386.713 290.034,392.499 278.284,392.500 277.307 C 392.500 277.246,391.956 276.842,391.292 276.408 C 388.219 274.402,385.242 271.379,383.750 268.750 C 383.490 268.292,383.172 267.792,383.043 267.640 C 382.827 267.385,382.390 266.401,381.407 263.952 C 379.752 259.830,379.838 251.867,381.583 247.750 C 381.738 247.383,381.976 246.821,382.112 246.500 C 382.606 245.330,382.914 244.733,383.451 243.899 C 383.753 243.432,384.000 242.973,384.000 242.881 C 384.000 242.789,384.286 242.384,384.635 241.982 C 384.985 241.579,385.388 241.077,385.532 240.866 C 386.075 240.070,388.503 237.695,389.337 237.144 C 389.564 236.994,389.962 236.687,390.221 236.461 C 390.772 235.981,393.558 234.376,394.362 234.075 C 397.251 232.993,398.326 232.641,399.059 232.534 L 399.917 232.408 399.877 230.829 C 399.819 228.562,399.560 226.250,398.905 222.167 C 398.036 216.750,397.873 215.956,396.547 210.667 C 396.250 209.486,395.103 205.880,394.988 205.767 C 394.949 205.729,394.504 205.647,394.000 205.585 C 393.496 205.523,391.921 205.249,390.500 204.978 C 389.079 204.706,387.242 204.375,386.417 204.241 C 383.704 203.802,382.953 203.666,379.513 202.996 C 377.641 202.632,375.923 202.333,375.697 202.333 C 375.470 202.333,373.589 202.003,371.517 201.599 C 369.445 201.195,367.327 200.817,366.811 200.760 C 366.294 200.702,365.718 200.625,365.530 200.589 C 365.227 200.531,365.175 200.632,365.075 201.470 M199.905 233.000 C 199.905 235.154,199.929 236.035,199.958 234.958 C 199.987 233.881,199.987 232.119,199.958 231.042 C 199.929 229.965,199.905 230.846,199.905 233.000 M199.909 248.333 C 199.909 251.679,199.931 253.048,199.958 251.375 C 199.985 249.702,199.985 246.965,199.958 245.292 C 199.931 243.619,199.909 244.987,199.909 248.333 M0.072 363.719 C 0.026 363.839,0.010 364.795,0.036 365.844 L 0.083 367.750 8.042 367.793 L 16.000 367.837 16.000 383.835 L 16.000 399.833 18.167 399.833 L 20.333 399.833 20.333 383.833 L 20.333 367.833 28.240 367.833 C 32.789 367.833,36.187 367.769,36.240 367.682 C 36.292 367.599,36.015 367.128,35.625 366.636 C 35.236 366.143,34.842 365.623,34.750 365.480 C 34.658 365.336,34.295 364.832,33.943 364.359 L 33.302 363.500 16.729 363.500 C 3.212 363.500,0.141 363.540,0.072 363.719 M44.592 363.677 C 42.420 364.041,40.076 365.825,39.000 367.935 L 38.417 369.078 38.417 381.748 L 38.417 394.417 38.853 395.348 C 39.598 396.936,41.130 398.525,42.644 399.281 L 43.583 399.750 59.375 399.794 C 68.060 399.818,75.167 399.797,75.167 399.747 C 75.167 399.611,74.684 398.888,73.780 397.667 C 73.338 397.071,72.663 396.156,72.280 395.635 L 71.583 394.686 58.417 394.635 C 43.840 394.578,44.944 394.666,44.074 393.487 C 43.667 392.936,43.667 392.928,43.667 388.718 L 43.667 384.502 59.458 384.459 L 75.250 384.417 75.296 377.750 C 75.356 368.987,75.215 368.196,73.212 366.055 C 72.095 364.860,70.353 363.928,68.747 363.665 C 67.536 363.467,45.784 363.478,44.592 363.677 M83.833 363.777 C 82.107 364.378,80.262 366.208,79.839 367.738 C 79.706 368.222,79.666 372.347,79.701 382.083 L 79.750 395.750 80.246 396.579 C 80.966 397.783,82.028 398.787,83.124 399.300 L 84.083 399.750 99.970 399.795 C 112.773 399.831,115.834 399.799,115.737 399.628 C 115.560 399.317,114.747 398.190,114.081 397.333 C 113.760 396.921,113.341 396.340,113.149 396.042 L 112.800 395.500 99.075 395.500 C 84.354 395.500,84.691 395.520,84.238 394.642 C 83.866 393.923,83.885 369.373,84.258 368.651 C 84.686 367.824,84.497 367.833,100.501 367.833 C 108.831 367.833,115.685 367.771,115.732 367.695 C 115.779 367.619,115.590 367.280,115.311 366.942 C 114.759 366.272,113.907 365.109,113.248 364.125 L 112.829 363.500 98.706 363.508 C 86.332 363.515,84.490 363.548,83.833 363.777 M123.333 364.605 C 122.554 365.192,121.673 365.862,121.375 366.094 L 120.833 366.514 120.833 383.179 L 120.833 399.843 122.958 399.797 L 125.083 399.750 125.127 391.792 L 125.170 383.833 139.333 383.833 L 153.497 383.833 153.540 391.792 L 153.583 399.750 155.750 399.750 L 157.917 399.750 157.959 381.759 C 157.982 371.864,157.940 363.707,157.866 363.632 C 157.791 363.557,157.306 363.816,156.789 364.206 C 156.272 364.597,155.324 365.292,154.684 365.750 L 153.519 366.583 153.510 373.042 L 153.500 379.500 139.335 379.500 L 125.170 379.500 125.127 371.556 C 125.099 366.431,125.024 363.598,124.917 363.574 C 124.825 363.553,124.112 364.017,123.333 364.605 M68.801 369.333 C 69.836 370.007,69.912 370.370,69.969 374.958 L 70.021 379.167 56.836 379.167 L 43.651 379.167 43.701 374.767 C 43.773 368.323,42.247 368.984,56.917 369.040 C 66.806 369.077,68.471 369.118,68.801 369.333 " stroke="none" fill="#4d4d4d" fill-rule="evenodd"></path><path id="path3" d="M234.583 142.167 C 234.941 142.533,235.272 142.833,235.318 142.833 C 235.363 142.833,235.108 142.533,234.750 142.167 C 234.392 141.800,234.062 141.500,234.016 141.500 C 233.970 141.500,234.225 141.800,234.583 142.167 " stroke="none" fill="#666666" fill-rule="evenodd"></path><path id="path4" d="" stroke="none" fill="#002baa" fill-rule="evenodd"></path><path id="path5" d="" stroke="none" fill="#0000ff" fill-rule="evenodd"></path><path id="path6" d="M186.372 137.500 C 186.372 137.821,186.406 137.952,186.448 137.792 C 186.490 137.631,186.490 137.369,186.448 137.208 C 186.406 137.048,186.372 137.179,186.372 137.500 " stroke="none" fill="#337369" fill-rule="evenodd"></path><path id="path7" d="M194.583 18.336 C 191.448 18.455,186.253 18.851,181.333 19.345 C 180.371 19.442,178.271 19.746,176.667 20.021 C 175.063 20.297,173.188 20.596,172.500 20.687 C 171.813 20.778,170.462 21.026,169.500 21.238 C 168.537 21.451,167.000 21.788,166.083 21.988 C 165.167 22.188,163.404 22.622,162.167 22.953 C 160.929 23.284,159.467 23.662,158.917 23.792 C 156.496 24.367,149.841 26.540,146.250 27.928 C 145.242 28.318,144.229 28.691,144.000 28.757 C 143.771 28.824,142.842 29.205,141.937 29.606 C 141.031 30.006,140.225 30.333,140.146 30.333 C 140.067 30.333,139.308 30.660,138.459 31.059 C 137.611 31.458,136.729 31.843,136.500 31.914 C 136.271 31.986,135.455 32.372,134.686 32.772 C 133.918 33.172,133.224 33.500,133.145 33.500 C 133.066 33.500,132.325 33.875,131.500 34.333 C 130.675 34.792,129.932 35.167,129.849 35.167 C 129.766 35.167,129.223 35.438,128.641 35.769 C 128.059 36.100,127.021 36.672,126.333 37.040 C 124.034 38.271,120.063 40.593,119.505 41.032 C 119.273 41.214,118.858 41.470,118.583 41.599 C 118.308 41.729,117.440 42.266,116.655 42.792 C 115.869 43.319,114.857 43.992,114.405 44.288 C 113.299 45.012,111.998 45.927,110.783 46.833 C 110.230 47.246,109.547 47.721,109.264 47.890 C 108.981 48.059,108.563 48.366,108.333 48.573 C 107.986 48.886,105.522 50.815,103.066 52.696 C 102.746 52.942,102.197 53.392,101.845 53.696 C 101.494 54.001,100.808 54.587,100.319 55.000 C 99.831 55.413,99.036 56.116,98.552 56.563 L 97.673 57.376 97.961 57.867 C 98.120 58.137,98.381 58.499,98.542 58.672 C 98.702 58.845,98.833 59.046,98.833 59.120 C 98.833 59.194,99.085 59.628,99.393 60.086 C 100.124 61.172,101.709 64.314,102.166 65.583 C 103.428 69.087,103.660 69.785,103.664 70.083 C 103.671 70.626,104.003 71.667,104.169 71.667 C 104.253 71.667,104.643 71.338,105.036 70.937 C 106.160 69.787,109.420 66.907,111.661 65.083 C 112.787 64.167,114.068 63.117,114.507 62.750 C 115.464 61.952,117.240 60.625,120.750 58.087 C 122.508 56.815,128.927 52.709,129.545 52.461 C 129.713 52.393,130.165 52.122,130.550 51.858 C 130.935 51.593,131.775 51.099,132.417 50.759 C 133.058 50.419,134.333 49.737,135.250 49.244 C 136.983 48.313,141.293 46.167,141.430 46.167 C 141.474 46.167,142.051 45.897,142.713 45.568 C 143.375 45.239,144.292 44.824,144.750 44.645 C 145.208 44.467,146.258 44.032,147.083 43.677 C 147.908 43.323,149.146 42.824,149.833 42.568 C 150.521 42.313,151.158 42.054,151.250 41.993 C 151.342 41.932,151.829 41.748,152.333 41.584 C 152.837 41.420,154.188 40.964,155.333 40.572 C 158.406 39.520,162.716 38.167,163.001 38.165 C 163.138 38.164,164.188 37.899,165.333 37.576 C 166.479 37.253,168.467 36.772,169.750 36.507 C 171.033 36.242,172.980 35.832,174.075 35.596 C 175.171 35.360,176.105 35.167,176.152 35.167 C 176.253 35.167,174.023 36.560,172.886 37.207 C 171.537 37.976,169.100 39.506,169.006 39.644 C 168.957 39.716,168.798 39.818,168.653 39.871 C 168.509 39.924,167.684 40.450,166.820 41.039 C 165.957 41.628,164.762 42.437,164.167 42.838 C 163.571 43.239,162.776 43.815,162.400 44.117 C 162.023 44.419,161.639 44.667,161.545 44.667 C 161.451 44.667,161.278 44.782,161.161 44.924 C 161.044 45.065,160.368 45.589,159.660 46.088 C 158.953 46.587,158.196 47.182,157.978 47.411 C 157.761 47.640,157.508 47.830,157.417 47.832 C 157.325 47.834,156.827 48.192,156.309 48.626 C 155.792 49.061,155.042 49.686,154.643 50.016 C 150.564 53.383,149.133 54.637,146.101 57.500 C 140.827 62.482,134.417 69.507,130.833 74.234 C 130.604 74.536,129.817 75.561,129.083 76.512 C 128.350 77.463,127.611 78.468,127.441 78.746 C 127.272 79.023,126.960 79.438,126.748 79.667 C 126.537 79.896,126.226 80.317,126.057 80.603 C 125.888 80.889,125.112 82.046,124.333 83.174 C 123.554 84.301,122.804 85.427,122.667 85.675 C 122.529 85.923,122.135 86.549,121.792 87.066 C 121.448 87.583,121.167 88.043,121.167 88.089 C 121.167 88.134,120.842 88.676,120.444 89.294 C 119.440 90.856,118.000 93.289,118.000 93.424 C 118.000 93.486,117.637 94.147,117.194 94.894 C 116.750 95.640,115.944 97.166,115.402 98.286 C 114.250 100.664,114.467 100.542,113.234 99.507 C 112.693 99.053,111.851 98.359,111.363 97.966 C 110.876 97.572,110.238 97.023,109.947 96.745 C 109.655 96.467,109.079 95.967,108.667 95.634 C 108.254 95.301,106.875 94.045,105.601 92.842 C 104.328 91.639,103.209 90.680,103.114 90.712 C 102.957 90.764,102.003 92.907,102.001 93.212 C 101.997 93.821,98.779 99.517,97.810 100.631 C 97.548 100.932,97.333 101.237,97.333 101.308 C 97.333 101.379,97.165 101.618,96.958 101.838 C 96.120 102.734,95.500 103.543,95.500 103.742 C 95.500 104.005,99.021 107.196,102.000 109.632 C 103.237 110.644,104.539 111.722,104.893 112.028 C 105.247 112.333,105.773 112.733,106.062 112.917 C 106.351 113.100,106.774 113.413,107.002 113.612 C 107.230 113.812,107.589 114.112,107.800 114.279 L 108.183 114.583 107.610 116.005 C 107.295 116.787,106.923 117.837,106.783 118.339 C 106.644 118.840,106.229 120.150,105.861 121.250 C 104.962 123.936,104.055 126.898,103.819 127.917 C 103.713 128.375,103.382 129.650,103.084 130.750 C 102.785 131.850,102.419 133.313,102.270 134.000 C 101.289 138.534,100.622 141.938,100.413 143.474 C 100.280 144.451,99.946 146.782,99.672 148.655 C 98.572 156.148,98.028 169.109,98.487 176.833 C 98.594 178.621,98.751 181.283,98.837 182.750 C 98.997 185.489,99.431 189.121,100.002 192.500 C 100.181 193.554,100.365 194.754,100.413 195.167 C 100.581 196.625,100.703 197.281,101.354 200.250 C 101.716 201.899,101.991 203.387,101.965 203.555 C 101.916 203.866,98.569 200.571,95.305 196.998 C 94.027 195.599,93.533 195.037,91.844 193.059 C 90.825 191.867,89.288 189.938,88.080 188.333 C 87.355 187.371,86.712 186.546,86.653 186.500 C 86.593 186.454,86.307 186.079,86.018 185.667 C 83.805 182.508,83.040 181.401,82.750 180.942 C 82.370 180.339,81.062 178.320,80.249 177.083 C 79.948 176.625,79.579 176.025,79.428 175.750 C 79.278 175.475,78.936 174.912,78.669 174.500 C 78.403 174.088,78.029 173.450,77.840 173.083 C 77.650 172.717,77.053 171.629,76.512 170.667 C 75.384 168.658,71.667 161.232,71.667 160.986 C 71.667 160.896,71.482 160.459,71.257 160.014 C 70.763 159.038,68.883 154.514,68.586 153.583 C 68.468 153.217,68.075 152.129,67.711 151.167 C 66.901 149.025,65.473 144.652,65.082 143.122 C 64.814 142.071,64.813 141.919,65.064 140.921 C 65.212 140.331,65.333 139.704,65.333 139.527 C 65.333 139.350,65.661 138.053,66.062 136.644 C 66.462 135.236,66.839 133.858,66.898 133.583 C 66.994 133.143,68.137 129.428,68.745 127.583 C 69.703 124.674,71.233 120.671,72.519 117.706 C 72.967 116.673,73.333 115.755,73.333 115.664 C 73.333 115.466,73.352 115.466,72.000 115.670 C 69.010 116.121,64.057 115.814,59.961 114.925 C 57.700 114.434,57.500 114.418,57.500 114.733 C 57.500 114.860,57.262 115.517,56.972 116.191 C 56.210 117.960,54.798 122.027,53.451 126.333 C 52.504 129.362,50.993 134.822,50.997 135.204 C 50.999 135.362,50.742 136.525,50.427 137.787 C 50.112 139.050,49.775 140.533,49.678 141.083 C 49.581 141.633,49.281 143.321,49.010 144.833 C 48.200 149.367,47.988 150.771,47.831 152.637 C 47.749 153.616,47.570 155.429,47.432 156.667 C 46.723 163.067,46.489 175.461,46.968 181.250 C 47.580 188.657,48.140 193.347,48.918 197.583 C 49.221 199.233,49.520 200.953,49.583 201.406 C 49.645 201.858,49.990 203.419,50.348 204.873 C 50.707 206.328,51.000 207.660,51.000 207.834 C 51.000 208.009,51.347 209.336,51.772 210.784 C 52.197 212.232,52.578 213.604,52.619 213.833 C 52.965 215.767,57.098 227.589,58.401 230.372 C 58.730 231.075,59.000 231.730,59.000 231.827 C 59.000 231.923,59.331 232.695,59.736 233.543 C 60.140 234.390,60.904 236.021,61.433 237.167 C 62.599 239.690,65.876 245.981,66.529 246.947 C 66.788 247.330,67.000 247.695,67.000 247.758 C 67.000 247.894,68.182 249.879,68.335 250.000 C 68.393 250.046,68.496 250.233,68.564 250.417 C 68.632 250.600,69.039 251.300,69.469 251.972 C 69.898 252.644,70.615 253.769,71.062 254.472 C 71.509 255.175,72.011 255.948,72.178 256.189 C 72.345 256.431,72.934 257.293,73.486 258.106 C 74.874 260.148,76.009 261.712,78.380 264.848 C 78.767 265.360,79.325 266.099,79.620 266.490 C 79.915 266.882,80.426 267.513,80.755 267.893 C 81.084 268.273,82.113 269.483,83.041 270.583 C 85.877 273.945,89.347 277.702,92.000 280.281 C 95.926 284.098,97.010 285.098,100.025 287.681 C 103.834 290.945,103.944 291.032,108.189 294.204 C 111.991 297.044,111.692 296.830,113.994 298.369 C 115.051 299.075,116.217 299.872,116.583 300.139 C 116.950 300.406,117.438 300.721,117.667 300.838 C 117.896 300.956,118.571 301.365,119.167 301.748 C 119.763 302.130,120.962 302.859,121.833 303.367 C 122.704 303.875,123.679 304.446,124.000 304.637 C 126.054 305.853,133.826 309.816,136.917 311.222 C 139.528 312.409,142.957 313.833,143.207 313.833 C 143.331 313.833,143.505 313.895,143.592 313.970 C 144.142 314.444,153.284 317.594,157.667 318.819 C 161.863 319.992,168.203 321.540,169.667 321.749 C 170.079 321.808,171.542 322.071,172.917 322.333 C 182.027 324.071,194.914 325.024,204.496 324.669 C 212.293 324.379,220.936 323.480,226.917 322.336 C 228.292 322.072,229.754 321.810,230.167 321.753 C 231.490 321.568,238.944 319.756,241.250 319.057 C 241.708 318.919,242.533 318.697,243.083 318.565 C 245.402 318.009,255.789 314.387,256.242 313.977 C 256.329 313.898,256.528 313.833,256.683 313.833 C 256.839 313.833,257.631 313.525,258.442 313.149 C 259.253 312.773,260.292 312.330,260.750 312.165 C 262.998 311.357,274.428 305.621,275.942 304.541 C 276.232 304.335,276.522 304.167,276.587 304.167 C 276.714 304.167,278.693 303.001,278.833 302.844 C 278.879 302.792,279.142 302.629,279.417 302.480 C 280.047 302.141,282.949 300.347,283.502 299.956 C 283.730 299.795,284.779 299.088,285.833 298.386 C 286.887 297.684,287.938 296.970,288.167 296.799 C 288.396 296.629,289.146 296.081,289.833 295.583 C 291.876 294.103,293.850 292.622,294.613 292.000 C 295.007 291.679,295.748 291.079,296.261 290.667 C 297.859 289.382,300.087 287.494,301.330 286.373 L 302.243 285.548 301.821 284.983 C 299.478 281.841,296.919 276.239,296.124 272.510 C 295.846 271.203,295.707 271.140,294.890 271.951 C 293.994 272.839,289.893 276.525,289.056 277.195 C 288.674 277.500,287.624 278.350,286.723 279.083 C 284.746 280.692,284.054 281.235,283.007 282.000 C 282.568 282.321,281.778 282.911,281.251 283.311 C 279.709 284.485,273.767 288.500,273.573 288.500 C 273.512 288.500,273.114 288.753,272.689 289.062 C 272.264 289.371,271.654 289.756,271.333 289.918 C 271.012 290.079,270.375 290.453,269.917 290.748 C 269.077 291.288,266.969 292.472,265.167 293.416 C 264.654 293.684,260.762 295.687,259.903 296.125 C 258.414 296.884,253.493 299.045,251.833 299.669 C 251.146 299.928,250.021 300.365,249.333 300.641 C 246.606 301.735,239.187 304.224,238.167 304.388 C 237.938 304.424,236.662 304.763,235.333 305.140 C 233.211 305.742,231.057 306.262,227.167 307.112 C 226.571 307.243,225.596 307.415,225.000 307.494 C 224.404 307.574,222.571 307.869,220.926 308.149 C 219.281 308.429,217.909 308.631,217.876 308.598 C 217.809 308.531,219.904 307.333,220.087 307.333 C 220.151 307.333,220.825 306.958,221.583 306.500 C 222.342 306.042,223.011 305.667,223.069 305.667 C 223.127 305.667,223.642 305.379,224.212 305.028 C 225.113 304.474,226.855 303.418,227.917 302.784 C 228.100 302.674,229.215 301.947,230.393 301.167 C 231.572 300.388,232.735 299.646,232.977 299.519 C 233.219 299.392,233.717 299.049,234.083 298.758 C 234.450 298.466,235.162 297.949,235.667 297.608 C 237.324 296.488,238.881 295.360,238.983 295.204 C 239.038 295.119,239.356 294.870,239.690 294.650 C 240.024 294.430,241.400 293.350,242.748 292.250 C 244.096 291.150,245.473 290.039,245.808 289.781 C 246.143 289.523,246.642 289.098,246.917 288.836 C 247.192 288.574,248.317 287.556,249.417 286.574 C 251.842 284.409,255.984 280.350,258.250 277.917 C 261.021 274.943,261.221 274.725,262.035 273.805 C 263.858 271.743,264.502 270.976,266.074 269.000 C 266.985 267.854,267.998 266.589,268.324 266.188 C 269.075 265.264,269.427 264.789,271.152 262.377 C 271.923 261.299,272.830 260.042,273.168 259.583 C 274.018 258.429,276.745 254.259,277.963 252.250 C 278.519 251.333,279.233 250.168,279.550 249.660 C 279.867 249.153,280.365 248.290,280.657 247.744 C 280.949 247.197,281.591 246.037,282.084 245.167 C 283.763 242.198,288.174 233.132,288.693 231.583 C 288.914 230.924,290.311 229.333,290.670 229.333 C 290.772 229.333,291.132 229.108,291.470 228.834 C 292.005 228.397,294.532 226.483,296.972 224.667 C 297.402 224.346,297.979 223.886,298.252 223.645 C 298.526 223.404,299.688 222.432,300.833 221.485 C 306.914 216.457,314.266 209.147,319.090 203.333 C 319.889 202.371,320.776 201.322,321.063 201.002 C 321.349 200.682,321.760 200.160,321.977 199.842 C 322.193 199.525,322.547 199.074,322.763 198.841 C 322.979 198.607,323.327 198.179,323.536 197.889 C 323.745 197.599,324.477 196.624,325.161 195.722 C 326.784 193.586,327.051 193.207,329.399 189.706 C 330.489 188.080,331.520 186.547,331.690 186.300 C 332.356 185.327,335.307 180.376,336.041 179.000 C 336.310 178.496,336.779 177.671,337.083 177.167 C 337.387 176.662,337.755 175.987,337.900 175.667 L 338.165 175.083 338.085 176.333 C 338.042 177.021,337.963 178.783,337.911 180.250 C 337.767 184.257,337.523 186.387,336.170 195.417 C 335.905 197.189,334.717 202.639,334.045 205.167 C 333.716 206.404,333.354 207.844,333.241 208.366 C 332.825 210.281,329.956 218.962,329.092 220.917 C 328.930 221.283,328.589 222.146,328.334 222.833 C 328.080 223.521,327.601 224.683,327.271 225.417 C 326.592 226.924,326.493 227.578,326.965 227.428 C 329.063 226.762,338.331 227.304,341.050 228.251 C 342.197 228.651,342.293 228.607,342.600 227.542 C 342.751 227.015,342.990 226.358,343.131 226.083 C 343.378 225.602,344.608 222.173,345.403 219.750 C 346.521 216.344,347.334 213.725,347.334 213.531 C 347.333 213.411,347.670 212.150,348.081 210.730 C 348.492 209.310,348.900 207.721,348.987 207.199 C 349.074 206.677,349.414 205.143,349.744 203.789 C 350.073 202.436,350.413 200.786,350.500 200.123 C 350.586 199.459,350.882 197.679,351.157 196.167 C 352.870 186.743,353.622 171.297,352.846 161.500 C 352.274 154.284,351.862 150.694,351.145 146.688 C 350.877 145.186,350.580 143.402,350.486 142.722 C 350.391 142.042,350.062 140.457,349.754 139.201 C 349.446 137.945,349.109 136.429,349.004 135.833 C 348.899 135.237,348.508 133.700,348.135 132.417 C 347.762 131.133,347.392 129.756,347.313 129.356 C 347.120 128.377,345.802 124.220,344.899 121.740 C 344.496 120.635,344.167 119.660,344.169 119.573 C 344.172 119.255,341.537 112.715,340.042 109.333 C 338.520 105.890,335.105 99.047,333.780 96.787 C 333.554 96.400,333.184 95.746,332.959 95.333 C 331.256 92.216,324.614 81.990,323.920 81.417 C 323.809 81.325,323.600 81.025,323.456 80.750 C 323.313 80.475,323.050 80.097,322.873 79.909 C 322.696 79.722,322.296 79.222,321.984 78.798 C 321.267 77.822,319.499 75.562,318.979 74.955 C 318.761 74.701,318.263 74.101,317.871 73.622 C 316.062 71.409,310.664 65.493,308.252 63.082 C 305.299 60.129,300.366 55.628,297.749 53.500 C 297.242 53.087,296.510 52.482,296.122 52.155 C 294.945 51.163,292.032 48.935,290.750 48.046 C 290.383 47.792,289.979 47.485,289.852 47.364 C 289.647 47.169,287.776 45.857,286.007 44.667 C 283.024 42.660,278.589 39.833,278.423 39.833 C 278.370 39.833,278.009 39.629,277.622 39.379 C 277.234 39.129,276.242 38.542,275.417 38.075 C 274.102 37.330,273.672 37.094,272.500 36.479 C 272.362 36.407,271.710 36.045,271.050 35.674 C 270.389 35.303,269.779 35.000,269.692 35.000 C 269.606 35.000,268.936 34.662,268.202 34.250 C 267.469 33.837,266.791 33.500,266.697 33.500 C 266.603 33.500,265.974 33.203,265.301 32.839 C 264.627 32.476,263.778 32.072,263.413 31.941 C 263.048 31.811,262.098 31.396,261.302 31.019 C 260.505 30.642,259.807 30.333,259.751 30.333 C 259.694 30.333,258.846 29.984,257.866 29.557 C 256.885 29.130,255.858 28.722,255.583 28.652 C 255.308 28.581,254.333 28.226,253.417 27.862 C 252.500 27.499,251.375 27.075,250.917 26.919 C 250.458 26.764,249.333 26.381,248.417 26.069 C 242.912 24.196,233.346 21.702,228.667 20.922 C 227.796 20.777,226.446 20.547,225.667 20.412 C 221.964 19.769,218.719 19.318,216.679 19.162 C 215.448 19.068,213.761 18.923,212.929 18.839 C 208.193 18.360,199.906 18.133,194.583 18.336 M226.553 35.761 C 228.036 36.088,229.813 36.464,230.500 36.597 C 233.585 37.191,241.351 39.397,245.076 40.738 C 245.905 41.036,246.883 41.376,247.250 41.493 C 248.015 41.737,250.578 42.765,254.750 44.502 C 257.466 45.632,264.711 49.184,266.695 50.358 C 267.214 50.665,268.034 51.142,268.516 51.417 C 270.713 52.669,271.207 52.957,272.196 53.566 C 273.226 54.201,277.983 57.355,279.861 58.649 C 281.172 59.553,284.596 62.107,285.500 62.856 C 285.912 63.198,287.225 64.285,288.417 65.271 C 293.333 69.339,298.021 73.839,302.413 78.705 L 304.966 81.535 304.604 82.059 C 304.405 82.347,304.019 82.814,303.746 83.096 C 303.473 83.378,302.837 84.078,302.333 84.653 C 299.422 87.972,292.153 94.946,288.381 98.041 C 287.851 98.476,287.009 99.170,286.510 99.583 C 285.447 100.463,285.375 100.479,285.228 99.875 C 285.167 99.623,284.791 98.838,284.392 98.131 C 283.993 97.424,283.667 96.786,283.667 96.714 C 283.666 96.642,283.291 95.953,282.833 95.183 C 282.375 94.412,282.000 93.742,282.000 93.694 C 282.000 93.591,280.361 90.801,279.585 89.583 C 279.097 88.817,278.044 87.093,277.265 85.785 C 277.089 85.491,276.677 84.875,276.348 84.417 C 276.019 83.958,275.674 83.456,275.583 83.300 C 275.410 83.005,273.540 80.301,272.609 79.000 C 272.314 78.587,271.513 77.507,270.828 76.599 C 270.143 75.691,269.438 74.753,269.260 74.516 C 269.082 74.278,268.669 73.769,268.343 73.385 C 268.017 73.001,267.375 72.223,266.917 71.655 C 261.887 65.424,254.553 57.894,248.666 52.917 C 247.798 52.183,246.964 51.471,246.812 51.333 C 246.660 51.196,246.072 50.708,245.505 50.250 C 244.939 49.792,244.049 49.061,243.529 48.626 C 243.009 48.192,242.517 47.836,242.435 47.835 C 242.353 47.834,242.203 47.730,242.102 47.603 C 241.865 47.308,238.352 44.667,238.197 44.667 C 238.132 44.667,237.893 44.496,237.665 44.287 C 237.216 43.877,234.051 41.636,233.727 41.500 C 233.618 41.454,233.129 41.133,232.640 40.785 C 231.544 40.008,228.930 38.376,225.083 36.068 C 224.258 35.574,223.645 35.168,223.720 35.168 C 223.795 35.167,225.070 35.434,226.553 35.761 M200.975 40.918 C 201.465 41.147,201.934 41.333,202.017 41.333 C 202.100 41.333,202.955 41.708,203.917 42.167 C 204.879 42.625,205.712 43.000,205.769 43.000 C 205.825 43.000,207.344 43.731,209.144 44.625 C 211.954 46.020,213.336 46.764,217.750 49.253 C 219.634 50.316,224.620 53.504,226.417 54.795 C 226.783 55.059,227.871 55.828,228.833 56.504 C 229.796 57.180,230.865 57.981,231.209 58.283 C 231.553 58.586,231.895 58.833,231.969 58.833 C 232.043 58.833,232.254 58.973,232.437 59.143 C 232.620 59.314,233.109 59.713,233.525 60.030 C 237.812 63.303,245.239 70.173,249.563 74.867 C 250.010 75.353,250.694 76.087,251.082 76.500 C 251.728 77.186,255.908 82.212,257.086 83.720 C 257.698 84.503,258.588 85.700,259.983 87.618 C 260.569 88.424,261.113 89.108,261.191 89.139 C 261.269 89.169,261.334 89.282,261.335 89.389 C 261.336 89.496,261.655 90.008,262.043 90.526 C 262.432 91.045,263.500 92.642,264.417 94.075 C 265.776 96.199,266.142 96.665,266.403 96.598 C 266.771 96.504,267.143 96.751,269.389 98.581 C 270.290 99.316,271.201 100.031,271.412 100.170 C 272.365 100.798,274.438 102.780,276.297 104.841 C 278.627 107.425,279.685 111.921,278.311 113.396 C 277.836 113.906,277.986 114.176,278.944 114.540 C 280.156 115.001,281.921 116.746,282.622 118.177 C 283.660 120.299,283.810 122.122,283.708 131.375 L 283.667 135.167 283.000 135.167 C 282.633 135.167,282.333 135.211,282.333 135.265 C 282.333 135.319,282.630 136.575,282.992 138.057 C 284.038 142.330,285.078 148.085,285.498 151.917 C 286.564 161.629,286.738 164.767,286.617 172.000 C 286.528 177.355,286.276 181.212,285.746 185.333 C 285.611 186.387,285.426 188.037,285.335 189.000 C 285.124 191.239,283.848 198.045,282.915 201.917 C 282.517 203.567,282.140 205.179,282.076 205.500 C 282.013 205.821,281.665 207.021,281.302 208.167 C 280.940 209.313,280.580 210.550,280.503 210.917 C 280.321 211.782,278.974 215.739,278.054 218.108 C 277.658 219.130,277.332 220.030,277.330 220.108 C 277.327 220.261,275.787 221.334,275.267 221.545 C 275.094 221.616,274.606 221.922,274.184 222.226 C 273.390 222.796,271.749 223.774,270.366 224.500 C 269.929 224.729,269.312 225.077,268.994 225.272 C 266.209 226.988,257.241 231.316,253.500 232.750 C 252.721 233.049,251.643 233.489,251.104 233.730 C 250.566 233.970,250.048 234.167,249.954 234.167 C 249.860 234.167,248.800 234.529,247.600 234.972 C 243.512 236.481,236.624 238.530,232.875 239.352 C 231.935 239.558,231.167 239.758,231.167 239.796 C 231.167 239.835,231.475 240.488,231.851 241.248 C 234.103 245.792,232.568 252.422,228.661 255.023 C 227.968 255.485,228.446 255.582,229.881 255.273 C 230.634 255.110,231.737 254.906,232.333 254.818 C 232.929 254.731,234.542 254.369,235.917 254.016 C 237.292 253.662,238.717 253.323,239.083 253.261 C 240.457 253.030,248.240 250.675,251.667 249.452 C 252.446 249.175,253.683 248.742,254.417 248.490 C 255.150 248.239,256.313 247.793,257.000 247.500 C 257.688 247.207,258.501 246.894,258.808 246.804 C 259.115 246.715,259.978 246.356,260.725 246.008 C 261.472 245.659,262.271 245.317,262.500 245.248 C 262.729 245.179,263.496 244.833,264.205 244.478 L 265.493 243.833 264.634 245.208 C 264.162 245.965,263.647 246.733,263.490 246.917 C 263.334 247.100,263.074 247.512,262.913 247.833 C 262.752 248.154,262.565 248.454,262.497 248.500 C 262.429 248.546,261.940 249.221,261.410 250.000 C 260.879 250.779,260.306 251.604,260.135 251.833 C 259.779 252.312,258.449 254.067,257.610 255.167 C 256.840 256.176,254.189 259.500,253.824 259.917 C 253.662 260.100,253.106 260.737,252.588 261.333 C 250.282 263.983,247.391 267.060,245.096 269.305 C 244.003 270.375,242.878 271.478,242.596 271.757 C 242.314 272.036,241.221 273.026,240.167 273.957 C 239.112 274.888,237.869 275.990,237.404 276.406 C 236.938 276.822,235.551 277.950,234.321 278.913 C 233.090 279.876,231.787 280.909,231.425 281.207 C 231.064 281.506,230.546 281.887,230.276 282.054 C 230.006 282.221,229.673 282.470,229.536 282.607 C 229.288 282.855,226.685 284.673,225.839 285.188 C 225.594 285.338,224.986 285.768,224.488 286.146 C 223.991 286.523,223.532 286.832,223.470 286.833 C 223.408 286.833,222.883 287.151,222.303 287.538 C 221.724 287.926,220.987 288.395,220.667 288.580 C 220.346 288.765,219.746 289.125,219.333 289.380 C 217.595 290.453,216.520 291.083,215.500 291.626 C 214.904 291.943,214.229 292.322,214.000 292.467 C 213.771 292.612,212.897 293.086,212.059 293.520 C 211.220 293.954,210.395 294.382,210.225 294.471 C 208.996 295.118,202.792 298.000,202.631 298.000 C 202.572 298.000,201.945 298.268,201.237 298.595 L 199.949 299.190 198.648 298.595 C 197.932 298.268,197.287 298.000,197.215 298.001 C 197.057 298.002,190.778 295.072,189.583 294.439 C 189.400 294.342,188.650 293.957,187.917 293.583 C 187.183 293.209,186.058 292.606,185.417 292.243 C 184.775 291.880,184.025 291.457,183.750 291.302 C 182.136 290.393,180.954 289.690,179.967 289.053 C 179.353 288.657,178.814 288.333,178.769 288.333 C 178.724 288.333,178.195 287.996,177.592 287.583 C 176.990 287.171,176.448 286.833,176.389 286.833 C 176.329 286.833,175.899 286.538,175.431 286.178 C 174.964 285.818,174.395 285.422,174.166 285.300 C 173.594 284.993,169.952 282.392,168.500 281.253 C 168.087 280.929,166.957 280.046,165.987 279.289 C 165.017 278.533,164.101 277.802,163.951 277.665 C 163.801 277.529,163.221 277.042,162.661 276.583 C 162.101 276.125,161.359 275.487,161.012 275.167 C 160.664 274.846,159.863 274.133,159.232 273.583 C 158.016 272.525,150.293 264.782,148.968 263.295 C 148.059 262.273,146.564 260.549,146.082 259.967 C 145.898 259.744,145.255 258.967,144.653 258.240 C 143.463 256.802,141.264 253.978,140.333 252.691 C 139.471 251.500,137.276 248.349,137.084 248.028 C 136.992 247.875,136.760 247.525,136.568 247.250 C 136.375 246.975,135.796 246.094,135.279 245.292 L 134.341 243.833 135.629 244.478 C 136.337 244.833,137.104 245.180,137.333 245.250 C 137.563 245.320,138.290 245.626,138.950 245.929 C 139.610 246.233,140.473 246.592,140.867 246.728 C 141.261 246.863,142.146 247.210,142.833 247.499 C 143.521 247.788,144.683 248.231,145.417 248.484 C 146.150 248.737,147.387 249.172,148.167 249.450 C 151.213 250.537,159.579 253.086,160.500 253.207 C 160.729 253.237,162.379 253.611,164.167 254.037 C 165.954 254.463,168.242 254.971,169.250 255.164 C 174.071 256.090,175.330 256.311,176.333 256.407 C 176.929 256.463,177.904 256.583,178.500 256.673 C 180.664 256.999,184.932 257.500,185.542 257.500 C 186.336 257.500,186.322 257.375,185.453 256.720 C 184.733 256.178,174.144 245.635,172.885 244.208 C 171.189 242.284,170.856 241.878,170.458 241.250 C 169.690 240.038,169.522 239.941,167.322 239.443 C 163.029 238.472,156.802 236.646,152.833 235.195 C 151.962 234.877,150.575 234.375,149.750 234.079 C 148.925 233.784,147.817 233.345,147.287 233.104 C 146.757 232.864,146.227 232.667,146.108 232.667 C 145.990 232.667,145.219 232.339,144.397 231.939 C 143.574 231.538,142.717 231.156,142.492 231.089 C 141.384 230.760,131.822 225.968,130.667 225.162 C 130.438 225.002,129.987 224.750,129.667 224.602 C 129.346 224.453,128.320 223.864,127.387 223.291 C 126.453 222.718,125.161 221.929,124.514 221.536 C 122.812 220.502,122.589 220.246,121.943 218.583 C 121.029 216.229,118.189 207.416,117.915 206.083 C 117.859 205.808,117.486 204.233,117.088 202.583 C 113.985 189.744,112.598 174.958,113.339 162.619 C 113.586 158.513,114.143 153.166,114.847 148.167 C 115.146 146.040,116.311 140.205,116.943 137.667 C 117.274 136.337,117.650 134.762,117.780 134.167 C 118.046 132.941,119.262 128.837,120.027 126.583 C 120.307 125.758,120.656 124.708,120.802 124.250 C 120.948 123.792,121.084 123.392,121.103 123.361 C 121.123 123.331,121.839 123.700,122.694 124.182 C 123.550 124.664,124.656 125.271,125.151 125.531 C 125.647 125.790,126.135 126.068,126.235 126.148 C 126.578 126.421,130.690 128.544,133.417 129.856 C 134.425 130.341,135.639 130.926,136.115 131.156 C 137.242 131.702,136.943 132.337,138.668 125.750 C 138.836 125.108,139.242 123.883,139.570 123.027 C 139.898 122.172,140.167 121.401,140.167 121.314 C 140.167 121.228,140.546 120.328,141.009 119.314 C 141.970 117.210,141.974 117.230,140.535 116.649 C 138.649 115.886,130.783 111.664,129.083 110.502 C 128.717 110.251,128.267 109.996,128.083 109.935 C 127.900 109.874,127.573 109.676,127.357 109.496 L 126.965 109.168 128.119 106.876 C 129.473 104.189,131.413 100.605,131.856 99.974 C 132.027 99.731,132.167 99.477,132.167 99.409 C 132.167 99.341,132.471 98.805,132.842 98.216 C 133.214 97.628,133.713 96.796,133.953 96.368 C 134.192 95.939,134.490 95.486,134.614 95.362 C 134.739 95.237,134.962 94.898,135.110 94.609 C 135.258 94.320,135.731 93.558,136.162 92.917 C 136.592 92.275,137.075 91.539,137.233 91.281 C 137.392 91.023,137.627 90.685,137.755 90.531 C 137.981 90.258,140.358 86.958,141.470 85.372 C 141.775 84.938,142.229 84.358,142.480 84.083 C 142.731 83.808,143.156 83.283,143.425 82.917 C 143.839 82.351,146.290 79.385,147.674 77.774 C 148.071 77.312,149.504 75.729,150.675 74.461 C 153.355 71.557,158.044 67.064,162.416 63.211 C 162.693 62.967,165.166 60.995,168.833 58.093 C 169.246 57.767,169.826 57.331,170.123 57.125 C 170.420 56.919,171.347 56.262,172.181 55.667 C 173.016 55.071,173.983 54.396,174.329 54.167 C 174.675 53.938,175.174 53.604,175.438 53.425 C 176.502 52.704,179.115 51.028,179.583 50.767 C 179.858 50.613,180.421 50.268,180.833 50.000 C 181.246 49.732,181.843 49.394,182.161 49.250 C 182.478 49.105,182.853 48.887,182.994 48.764 C 183.135 48.641,183.775 48.259,184.417 47.914 C 188.537 45.701,190.470 44.708,192.556 43.735 C 193.854 43.129,195.540 42.341,196.301 41.983 C 197.063 41.626,197.775 41.329,197.885 41.324 C 197.994 41.318,198.458 41.134,198.917 40.913 C 199.949 40.416,199.896 40.416,200.975 40.918 M178.583 93.675 C 177.150 94.167,174.872 95.173,173.083 96.103 C 170.889 97.244,169.370 98.095,168.901 98.447 C 168.617 98.659,168.304 98.833,168.205 98.833 C 168.105 98.833,167.923 98.934,167.800 99.057 C 167.677 99.181,166.940 99.701,166.163 100.213 C 165.386 100.725,164.600 101.283,164.417 101.452 C 164.233 101.621,163.821 101.941,163.500 102.163 C 163.179 102.385,162.879 102.616,162.833 102.677 C 162.787 102.737,162.300 103.163,161.750 103.625 C 159.600 105.430,155.468 109.749,154.701 110.993 C 154.558 111.226,154.240 111.642,153.995 111.917 C 153.473 112.502,151.500 115.391,151.500 115.568 C 151.500 115.635,151.285 116.003,151.021 116.387 C 148.793 119.631,145.830 127.227,144.899 132.079 C 142.910 142.456,143.311 150.103,146.304 158.833 C 147.227 161.524,148.185 163.930,148.991 165.583 C 149.170 165.950,149.571 166.775,149.883 167.417 C 150.196 168.058,150.836 169.296,151.307 170.167 C 151.779 171.037,152.437 172.275,152.771 172.917 C 153.104 173.558,153.597 174.403,153.865 174.794 C 154.133 175.184,154.461 175.747,154.595 176.044 C 154.729 176.340,155.171 177.108,155.579 177.750 C 155.986 178.392,156.322 178.974,156.326 179.044 C 156.330 179.114,156.585 179.564,156.893 180.044 C 157.200 180.524,157.925 181.742,158.503 182.750 C 159.081 183.758,159.879 185.137,160.277 185.813 C 160.675 186.489,161.000 187.102,161.000 187.174 C 161.000 187.246,161.337 187.877,161.750 188.574 C 162.162 189.272,162.500 189.881,162.500 189.927 C 162.500 189.973,162.808 190.552,163.186 191.213 C 163.563 191.875,164.178 192.979,164.554 193.667 C 169.131 202.048,170.427 205.135,170.569 208.000 C 170.626 209.146,170.707 210.496,170.748 211.000 C 170.822 211.899,170.899 213.005,171.085 215.833 C 171.752 225.993,171.976 227.464,173.430 231.212 C 174.339 233.555,176.628 237.256,178.230 238.974 C 181.133 242.086,182.052 243.017,185.830 246.667 C 187.680 248.454,189.523 250.229,189.926 250.611 C 190.714 251.358,193.257 253.167,193.520 253.167 C 193.608 253.167,193.996 253.328,194.382 253.525 C 195.495 254.095,196.633 254.329,198.292 254.331 L 199.833 254.333 199.857 248.375 C 199.889 240.450,199.889 229.847,199.859 189.814 L 199.833 156.212 196.958 156.122 C 191.449 155.949,185.330 154.268,181.867 151.974 C 181.472 151.714,181.097 151.499,181.033 151.499 C 180.937 151.497,180.056 150.790,178.667 149.596 C 175.933 147.248,173.893 142.873,173.687 138.917 C 173.508 135.467,173.746 130.998,174.210 129.083 C 175.347 124.398,175.976 122.759,178.522 117.845 C 178.969 116.981,179.443 116.156,179.573 116.011 C 179.703 115.867,179.884 115.554,179.975 115.315 C 180.066 115.076,180.424 114.439,180.770 113.899 C 181.117 113.359,181.581 112.579,181.801 112.167 C 182.021 111.754,182.258 111.379,182.327 111.333 C 182.396 111.287,182.772 110.650,183.163 109.917 C 183.553 109.183,184.031 108.321,184.226 108.000 C 184.626 107.341,185.510 105.249,186.021 103.750 C 186.534 102.247,186.630 98.614,186.194 97.213 C 185.169 93.920,182.069 92.479,178.583 93.675 M315.691 95.833 C 316.061 96.429,316.512 97.142,316.692 97.417 C 317.710 98.971,318.714 100.597,318.796 100.824 C 318.847 100.966,319.091 101.383,319.337 101.750 C 320.633 103.678,326.833 115.869,326.833 116.488 C 326.833 116.561,327.132 117.267,327.497 118.057 C 327.862 118.847,328.316 119.954,328.506 120.517 C 328.695 121.079,328.995 121.849,329.173 122.228 C 329.350 122.607,329.752 123.667,330.065 124.583 C 330.378 125.500,330.830 126.813,331.071 127.500 C 331.748 129.436,333.015 133.527,333.110 134.083 C 333.157 134.358,333.517 135.783,333.911 137.250 C 334.917 140.993,335.066 141.909,334.832 142.924 C 334.383 144.875,331.771 152.447,330.293 156.083 C 328.902 159.506,326.982 163.688,325.319 166.917 C 323.249 170.934,322.638 172.067,322.326 172.464 C 322.147 172.692,322.000 172.953,322.000 173.045 C 322.000 173.137,321.659 173.730,321.242 174.362 C 320.826 174.995,320.438 175.641,320.380 175.798 C 320.322 175.955,320.000 176.496,319.663 177.000 C 319.327 177.504,318.595 178.629,318.036 179.500 C 316.879 181.304,315.933 182.692,314.792 184.260 C 314.356 184.859,314.000 185.397,314.000 185.455 C 314.000 185.514,313.718 185.904,313.372 186.323 C 313.027 186.741,312.521 187.376,312.247 187.733 C 309.479 191.352,308.886 192.086,306.864 194.402 C 304.844 196.716,303.088 198.598,300.297 201.442 L 297.818 203.968 297.929 203.192 C 297.990 202.766,298.337 201.029,298.699 199.333 C 299.062 197.637,299.460 195.463,299.584 194.500 C 299.708 193.537,299.997 191.475,300.226 189.917 C 301.353 182.257,301.800 170.984,301.338 161.917 C 301.249 160.175,301.138 157.976,301.091 157.030 C 300.990 155.014,300.621 151.663,300.151 148.500 C 299.967 147.262,299.712 145.425,299.584 144.417 C 299.456 143.408,299.080 141.308,298.749 139.750 C 298.418 138.192,298.084 136.502,298.008 135.995 C 297.932 135.488,297.552 133.876,297.164 132.412 C 296.777 130.948,296.397 129.412,296.321 129.000 C 296.245 128.587,295.909 127.388,295.573 126.333 C 295.238 125.279,294.902 124.117,294.827 123.750 C 294.752 123.383,294.382 122.221,294.003 121.167 C 293.625 120.112,293.209 118.860,293.079 118.383 C 292.948 117.906,292.575 116.856,292.249 116.050 L 291.656 114.583 292.036 114.277 C 292.246 114.109,292.614 113.798,292.855 113.586 C 293.096 113.373,293.448 113.117,293.638 113.015 C 293.827 112.914,294.318 112.550,294.727 112.207 C 295.137 111.864,295.935 111.208,296.500 110.750 C 300.736 107.318,304.237 104.127,308.559 99.762 C 311.895 96.392,313.355 94.865,313.988 94.079 C 314.273 93.726,314.571 94.032,315.691 95.833 M181.945 129.237 C 181.324 130.854,181.025 137.696,181.481 139.833 C 181.753 141.105,182.432 142.463,183.299 143.468 L 183.919 144.186 186.251 144.416 C 187.534 144.543,189.390 144.698,190.375 144.762 L 192.167 144.879 192.167 137.376 L 192.167 129.873 190.708 129.759 C 189.906 129.696,188.200 129.535,186.917 129.402 C 182.422 128.934,182.066 128.922,181.945 129.237 M187.000 137.033 C 187.000 138.725,186.949 139.349,186.820 139.220 C 186.243 138.643,186.109 134.667,186.667 134.667 C 186.984 134.667,187.000 134.778,187.000 137.033 M62.408 176.375 C 62.729 177.040,63.275 178.083,63.621 178.694 C 63.967 179.305,64.582 180.392,64.987 181.111 C 65.392 181.829,66.011 182.844,66.362 183.366 C 66.713 183.888,67.000 184.357,67.000 184.409 C 67.000 184.569,70.709 190.228,71.952 191.965 C 72.299 192.449,72.808 193.162,73.083 193.548 C 74.508 195.548,75.831 197.285,76.146 197.567 C 76.341 197.742,76.500 197.972,76.500 198.078 C 76.500 198.183,76.710 198.491,76.968 198.760 C 77.225 199.030,78.064 200.037,78.831 201.000 C 79.599 201.963,80.495 203.056,80.822 203.431 C 81.149 203.805,81.792 204.552,82.250 205.091 C 83.205 206.213,83.835 206.900,86.116 209.310 C 91.042 214.514,95.693 218.827,101.244 223.338 C 103.604 225.256,107.225 227.996,109.828 229.833 C 110.563 230.352,111.667 232.091,111.667 232.729 C 111.667 233.033,116.437 242.776,117.145 243.917 C 117.372 244.283,117.812 245.071,118.122 245.667 C 118.931 247.223,119.924 248.948,120.590 249.956 C 120.907 250.436,121.167 250.881,121.167 250.946 C 121.167 251.138,125.617 257.934,127.417 260.490 C 129.286 263.146,130.040 264.171,130.186 264.262 C 130.274 264.317,130.544 264.674,130.784 265.056 C 131.024 265.438,131.439 265.981,131.704 266.264 C 131.970 266.547,132.314 266.971,132.469 267.208 C 132.804 267.720,135.722 271.319,136.522 272.207 C 136.831 272.549,137.421 273.218,137.833 273.693 C 142.089 278.591,150.489 286.840,154.272 289.836 C 154.559 290.064,155.899 291.150,157.249 292.250 C 158.598 293.350,159.976 294.430,160.310 294.650 C 160.644 294.870,160.962 295.119,161.017 295.204 C 161.125 295.369,162.722 296.521,164.551 297.755 C 165.175 298.176,165.834 298.647,166.014 298.802 C 166.195 298.957,166.591 299.233,166.895 299.417 C 167.198 299.600,168.432 300.406,169.636 301.208 C 170.840 302.010,171.857 302.667,171.897 302.667 C 171.937 302.667,172.482 303.004,173.110 303.416 C 173.737 303.829,174.302 304.166,174.366 304.166 C 174.430 304.167,175.067 304.542,175.783 305.000 C 176.498 305.458,177.137 305.833,177.202 305.833 C 177.268 305.833,177.877 306.171,178.557 306.583 C 179.236 306.996,179.846 307.333,179.911 307.333 C 180.115 307.333,182.188 308.535,182.113 308.610 C 182.073 308.649,180.663 308.447,178.979 308.160 C 177.295 307.874,175.399 307.571,174.766 307.488 C 173.176 307.278,167.414 305.959,164.500 305.137 C 163.171 304.762,161.815 304.403,161.487 304.339 C 160.699 304.184,156.419 302.795,153.940 301.889 C 152.853 301.492,151.858 301.167,151.729 301.167 C 151.601 301.167,151.365 301.093,151.206 301.004 C 150.703 300.720,147.718 299.500,147.527 299.500 C 147.426 299.500,146.738 299.204,145.998 298.842 C 145.257 298.480,144.486 298.134,144.284 298.072 C 143.551 297.849,136.440 294.417,134.833 293.511 C 134.512 293.331,134.137 293.139,134.000 293.086 C 133.862 293.033,133.337 292.731,132.833 292.415 C 132.329 292.098,131.692 291.732,131.417 291.600 C 130.664 291.240,124.748 287.611,124.333 287.255 C 124.196 287.137,123.847 286.920,123.557 286.774 C 123.268 286.628,122.931 286.408,122.807 286.286 C 122.684 286.164,121.946 285.632,121.167 285.104 C 120.388 284.576,119.300 283.814,118.750 283.411 C 118.200 283.008,117.450 282.469,117.083 282.214 C 116.717 281.959,116.342 281.665,116.250 281.561 C 116.158 281.457,115.781 281.157,115.411 280.894 C 114.649 280.353,112.889 278.947,111.579 277.833 C 111.094 277.421,110.340 276.783,109.903 276.417 C 109.232 275.853,107.087 273.918,104.451 271.500 C 103.892 270.986,101.134 268.205,99.509 266.514 C 98.848 265.827,95.794 262.445,94.830 261.333 C 92.481 258.623,89.933 255.369,87.509 251.983 C 86.827 251.030,86.208 250.225,86.134 250.194 C 86.061 250.164,86.000 250.072,86.000 249.990 C 86.000 249.908,85.287 248.780,84.417 247.483 C 83.546 246.186,82.833 245.079,82.833 245.023 C 82.833 244.967,82.508 244.433,82.111 243.836 C 81.157 242.403,79.667 239.891,79.667 239.716 C 79.667 239.640,79.489 239.316,79.273 238.997 C 78.473 237.819,73.333 227.635,73.333 227.229 C 73.333 227.171,73.002 226.364,72.597 225.437 C 71.465 222.845,70.321 219.980,70.160 219.333 C 70.080 219.012,69.674 217.887,69.258 216.833 C 68.841 215.779,68.500 214.796,68.500 214.650 C 68.500 214.503,68.171 213.415,67.770 212.233 C 67.368 211.051,66.992 209.858,66.933 209.583 C 66.875 209.308,66.498 207.846,66.096 206.333 C 63.855 197.916,62.451 189.216,62.006 181.000 C 61.909 179.213,61.788 177.169,61.737 176.458 C 61.622 174.868,61.675 174.861,62.408 176.375 M168.499 363.625 C 168.498 363.795,168.946 365.138,169.543 366.750 C 170.224 368.594,171.421 371.909,172.160 374.000 C 172.500 374.962,172.978 376.243,173.222 376.846 C 173.467 377.449,173.667 378.014,173.667 378.100 C 173.667 378.187,173.900 378.856,174.184 379.587 C 174.717 380.955,175.743 383.758,176.838 386.833 C 177.181 387.796,177.593 388.921,177.754 389.333 C 177.914 389.746,178.325 390.871,178.667 391.833 C 180.342 396.556,180.688 397.503,181.131 398.583 L 181.609 399.750 184.692 399.795 L 187.774 399.840 188.207 398.629 C 188.445 397.962,188.944 396.560,189.316 395.512 C 189.688 394.465,190.252 392.928,190.568 392.096 C 191.867 388.682,192.650 386.560,192.754 386.167 C 192.815 385.938,193.195 384.914,193.599 383.892 C 194.003 382.870,194.333 381.959,194.333 381.868 C 194.333 381.778,194.708 380.757,195.167 379.600 C 195.625 378.443,196.002 377.366,196.004 377.206 C 196.006 377.047,196.381 377.849,196.837 378.988 C 197.293 380.127,197.667 381.143,197.667 381.245 C 197.667 381.347,198.004 382.271,198.417 383.297 C 198.829 384.323,199.167 385.246,199.167 385.349 C 199.167 385.451,199.542 386.471,200.000 387.616 C 200.458 388.760,200.833 389.773,200.833 389.865 C 200.833 389.958,201.164 390.870,201.568 391.892 C 201.971 392.914,202.352 393.938,202.413 394.167 C 202.474 394.396,202.847 395.446,203.243 396.500 C 203.639 397.554,204.068 398.717,204.197 399.083 L 204.431 399.750 207.557 399.750 L 210.684 399.750 211.094 398.750 C 211.320 398.200,211.646 397.300,211.820 396.750 C 211.993 396.200,212.301 395.337,212.504 394.833 C 212.707 394.329,213.195 393.017,213.588 391.917 C 213.981 390.817,214.658 388.942,215.093 387.750 C 215.528 386.558,216.159 384.796,216.495 383.833 C 216.831 382.871,217.304 381.596,217.546 381.000 C 217.788 380.404,218.205 379.279,218.471 378.500 C 219.352 375.925,220.131 373.773,220.820 372.009 C 221.194 371.052,221.500 370.195,221.500 370.106 C 221.500 370.016,221.700 369.449,221.944 368.846 C 222.315 367.931,223.430 364.857,223.778 363.789 C 223.868 363.512,223.621 363.497,219.564 363.539 C 215.402 363.582,215.252 363.595,215.197 363.917 C 215.165 364.100,214.813 365.075,214.415 366.083 C 214.016 367.092,213.636 368.142,213.571 368.417 C 213.505 368.692,213.194 369.554,212.880 370.333 C 212.567 371.113,212.060 372.462,211.755 373.333 C 210.667 376.436,209.696 379.099,209.268 380.157 C 209.029 380.747,208.833 381.336,208.833 381.465 C 208.833 381.594,208.726 381.936,208.594 382.225 C 208.462 382.514,208.174 383.187,207.954 383.721 L 207.554 384.692 207.181 383.508 C 206.975 382.856,206.513 381.601,206.153 380.717 C 205.794 379.834,205.500 379.031,205.500 378.933 C 205.500 378.835,205.168 377.892,204.763 376.836 C 203.815 374.367,202.950 372.050,202.119 369.750 C 201.076 366.867,200.391 364.973,200.127 364.250 L 199.883 363.583 196.137 363.539 L 192.391 363.494 192.207 364.039 C 192.106 364.338,191.728 365.408,191.365 366.417 C 191.003 367.425,190.326 369.321,189.861 370.629 C 189.395 371.938,188.966 373.086,188.908 373.181 C 188.850 373.275,188.482 374.267,188.090 375.385 C 186.825 378.996,186.319 380.382,185.585 382.250 C 185.189 383.258,184.838 384.216,184.807 384.378 C 184.750 384.673,183.075 380.444,181.885 377.000 C 181.742 376.587,181.267 375.275,180.828 374.083 C 180.389 372.892,179.680 370.942,179.251 369.750 C 178.823 368.558,178.123 366.665,177.695 365.542 L 176.917 363.501 172.708 363.500 C 170.394 363.500,168.500 363.556,168.499 363.625 M228.500 381.667 L 228.500 399.833 232.583 399.833 L 236.667 399.833 236.667 381.667 L 236.667 363.500 232.583 363.500 L 228.500 363.500 228.500 381.667 M244.561 363.804 C 240.304 365.289,239.167 367.594,239.167 374.738 C 239.167 380.576,239.727 382.341,242.154 384.146 C 244.244 385.700,243.075 385.575,256.042 385.632 L 267.500 385.682 267.500 388.757 L 267.500 391.833 257.333 391.833 L 247.167 391.833 247.167 390.333 L 247.167 388.833 243.167 388.833 L 239.167 388.833 239.167 390.811 C 239.167 395.121,240.473 397.595,243.580 399.167 L 244.733 399.750 257.408 399.750 L 270.083 399.750 271.292 399.123 C 271.956 398.778,272.500 398.422,272.500 398.331 C 272.500 398.241,272.598 398.167,272.717 398.167 C 273.245 398.167,274.732 396.076,275.267 394.583 C 275.644 393.532,275.818 385.840,275.506 384.047 C 275.042 381.382,273.416 379.364,270.739 378.129 L 269.917 377.750 258.542 377.704 L 247.167 377.658 247.167 374.579 L 247.167 371.500 257.333 371.500 L 267.500 371.500 267.500 373.000 L 267.500 374.500 271.583 374.500 L 275.667 374.500 275.667 372.614 C 275.667 368.285,274.372 365.829,271.254 364.247 L 269.948 363.583 257.682 363.544 C 246.267 363.508,245.357 363.526,244.561 363.804 M285.887 363.740 C 283.752 364.408,281.978 365.959,281.009 368.007 L 280.500 369.083 280.500 374.535 C 280.500 381.316,280.782 382.267,283.377 384.230 C 285.290 385.679,284.293 385.577,297.125 385.633 L 308.500 385.682 308.500 388.758 L 308.500 391.833 298.506 391.833 L 288.513 391.833 288.465 390.375 L 288.417 388.917 284.458 388.872 L 280.500 388.827 280.500 391.491 C 280.500 395.678,281.704 397.774,284.997 399.319 L 285.917 399.750 298.509 399.750 L 311.101 399.750 312.386 399.115 C 314.023 398.306,315.071 397.259,315.920 395.587 L 316.583 394.281 316.583 388.765 L 316.583 383.250 315.917 381.939 C 315.111 380.356,313.910 379.174,312.252 378.333 L 311.101 377.750 299.801 377.704 L 288.500 377.658 288.500 374.579 L 288.500 371.500 298.500 371.500 L 308.500 371.500 308.500 373.000 L 308.500 374.500 312.600 374.500 L 316.701 374.500 316.642 371.792 L 316.583 369.083 315.964 367.833 C 314.979 365.844,313.243 364.382,311.116 363.750 C 309.950 363.404,286.992 363.395,285.887 363.740 M329.500 363.672 C 326.370 364.228,323.785 366.272,322.352 369.322 L 321.917 370.250 321.917 381.667 C 321.917 394.514,321.839 393.676,323.217 395.750 C 324.148 397.152,324.421 397.428,325.803 398.366 C 328.124 399.939,326.840 399.833,343.693 399.833 L 358.500 399.833 358.500 395.000 L 358.500 390.167 345.000 390.167 L 331.500 390.167 331.500 388.500 L 331.500 386.833 345.007 386.833 L 358.515 386.833 358.466 378.542 L 358.417 370.250 357.982 369.333 C 357.130 367.539,354.813 364.833,354.128 364.833 C 354.038 364.833,353.502 364.613,352.937 364.343 C 352.372 364.074,351.424 363.774,350.830 363.678 C 349.560 363.472,330.657 363.467,329.500 363.672 M363.667 381.667 L 363.667 399.833 367.666 399.833 L 371.664 399.833 371.707 387.921 L 371.750 376.008 372.583 377.025 C 373.871 378.597,375.354 380.381,375.679 380.750 C 376.460 381.636,377.682 383.068,378.610 384.183 C 379.174 384.862,380.224 386.122,380.943 386.984 C 381.662 387.846,382.433 388.784,382.657 389.067 C 382.881 389.351,383.331 389.890,383.657 390.264 C 383.983 390.638,384.550 391.303,384.917 391.742 C 385.283 392.181,385.921 392.937,386.333 393.421 C 386.746 393.906,387.571 394.884,388.167 395.594 C 388.762 396.305,389.550 397.242,389.917 397.677 C 390.283 398.111,390.831 398.775,391.134 399.150 L 391.685 399.833 395.843 399.833 L 400.000 399.833 400.000 381.667 L 400.000 363.500 395.918 363.500 L 391.836 363.500 391.793 375.329 L 391.750 387.158 390.917 386.135 C 390.458 385.572,389.783 384.758,389.417 384.326 C 389.050 383.894,388.037 382.696,387.167 381.662 C 386.296 380.629,385.317 379.476,384.992 379.100 C 384.667 378.724,383.883 377.779,383.250 377.000 C 382.618 376.221,381.796 375.236,381.425 374.811 C 381.054 374.386,380.337 373.536,379.833 372.923 C 379.329 372.309,378.642 371.494,378.307 371.112 C 377.972 370.729,376.706 369.217,375.493 367.750 C 374.281 366.283,373.187 364.971,373.062 364.833 C 372.937 364.696,372.641 364.340,372.403 364.042 L 371.970 363.500 367.819 363.500 L 363.667 363.500 363.667 381.667 M348.833 375.667 L 348.833 378.000 340.167 378.000 L 331.500 378.000 331.500 375.667 L 331.500 373.333 340.167 373.333 L 348.833 373.333 348.833 375.667 " stroke="none" fill="#0076a8" fill-rule="evenodd"></path><path id="path8" d="M199.915 189.833 C 199.915 208.213,199.935 215.731,199.958 206.542 C 199.982 197.352,199.982 182.315,199.958 173.125 C 199.935 163.935,199.915 171.454,199.915 189.833 M325.058 334.333 C 325.058 335.112,325.087 335.431,325.122 335.042 C 325.157 334.652,325.157 334.015,325.122 333.625 C 325.087 333.235,325.058 333.554,325.058 334.333 " stroke="none" fill="#708a57" fill-rule="evenodd"></path><path id="path9" d="" stroke="none" fill="#ff0000" fill-rule="evenodd"></path><path id="path10" d="M235.824 107.458 L 235.250 108.083 235.875 107.509 C 236.457 106.974,236.577 106.833,236.449 106.833 C 236.422 106.833,236.140 107.115,235.824 107.458 M234.333 108.917 C 233.928 109.329,233.635 109.667,233.681 109.667 C 233.726 109.667,234.095 109.329,234.500 108.917 C 234.905 108.504,235.199 108.167,235.153 108.167 C 235.107 108.167,234.738 108.504,234.333 108.917 M233.200 110.200 C 232.957 110.443,232.941 110.777,233.165 110.915 C 233.260 110.974,233.287 110.907,233.229 110.757 C 233.174 110.613,233.222 110.384,233.335 110.248 C 233.581 109.951,233.483 109.917,233.200 110.200 M227.889 124.833 C 227.889 125.521,227.919 125.802,227.955 125.458 C 227.991 125.115,227.991 124.552,227.955 124.208 C 227.919 123.865,227.889 124.146,227.889 124.833 M227.872 127.333 C 227.872 127.654,227.906 127.785,227.948 127.625 C 227.990 127.465,227.990 127.202,227.948 127.042 C 227.906 126.881,227.872 127.013,227.872 127.333 M235.500 143.052 C 235.500 143.081,235.744 143.325,236.042 143.594 L 236.583 144.083 236.094 143.542 C 235.638 143.037,235.500 142.923,235.500 143.052 " stroke="none" fill="#a98b3c" fill-rule="evenodd"></path><path id="path11" d="" stroke="none" fill="#00aaaa" fill-rule="evenodd"></path><path id="path12" d="" stroke="none" fill="#aaaa00" fill-rule="evenodd"></path><path id="path13" d="" stroke="none" fill="#ff8000" fill-rule="evenodd"></path><path id="path14" d="" stroke="none" fill="#bfbf40" fill-rule="evenodd"></path><path id="path15" d="" stroke="none" fill="#ffaa00" fill-rule="evenodd"></path><path id="path16" d="M199.833 105.618 C 199.833 115.056,199.883 145.403,199.944 173.056 L 200.055 223.333 210.497 223.333 C 223.207 223.333,223.112 223.345,224.712 221.612 C 225.679 220.564,226.035 219.657,226.495 217.068 C 227.280 212.654,228.746 207.505,230.269 203.811 C 230.671 202.836,231.000 201.989,231.000 201.928 C 231.000 201.827,231.402 200.949,232.686 198.250 C 233.323 196.909,234.421 194.856,235.317 193.332 C 235.720 192.645,236.352 191.558,236.721 190.917 C 237.090 190.275,237.732 189.193,238.148 188.513 C 238.564 187.832,239.019 187.068,239.160 186.816 C 239.394 186.398,240.822 184.048,242.083 182.008 C 242.358 181.563,242.966 180.573,243.433 179.808 C 243.901 179.043,244.519 178.068,244.808 177.642 C 245.097 177.217,245.333 176.824,245.333 176.769 C 245.333 176.715,245.657 176.163,246.053 175.543 C 246.448 174.924,246.889 174.192,247.032 173.917 C 247.175 173.642,247.641 172.817,248.069 172.083 C 249.731 169.233,252.434 163.327,253.141 161.000 C 254.212 157.477,254.831 155.330,254.894 154.917 C 254.936 154.642,255.166 153.629,255.404 152.667 C 256.088 149.895,256.497 145.565,255.843 148.018 C 255.681 148.624,255.496 149.205,255.431 149.310 C 255.287 149.544,249.402 149.579,249.258 149.347 C 249.206 149.263,248.975 147.861,248.745 146.232 C 248.515 144.604,248.305 143.249,248.278 143.223 C 248.252 143.196,247.592 142.989,246.812 142.763 C 246.032 142.537,244.770 142.041,244.008 141.660 L 242.621 140.968 240.935 142.109 C 240.008 142.737,238.811 143.568,238.275 143.957 L 237.299 144.665 236.815 144.321 C 236.199 143.882,233.199 140.872,232.992 140.485 C 232.868 140.254,233.120 139.797,234.194 138.305 C 234.941 137.266,235.778 136.101,236.053 135.715 L 236.554 135.014 236.040 134.049 C 235.366 132.782,234.832 131.446,234.590 130.426 C 234.360 129.450,234.563 129.530,230.706 128.892 C 227.475 128.358,227.760 128.759,227.866 124.890 C 227.954 121.667,227.721 121.972,230.386 121.601 C 233.856 121.118,234.500 120.983,234.500 120.739 C 234.500 120.311,235.025 118.917,235.770 117.368 L 236.514 115.819 236.035 115.118 C 234.239 112.490,233.576 111.534,233.307 111.186 C 233.138 110.967,233.000 110.682,233.000 110.552 C 233.000 110.268,235.985 107.146,236.891 106.483 L 237.532 106.013 238.751 106.881 C 239.421 107.359,240.618 108.217,241.409 108.788 C 242.669 109.697,242.890 109.801,243.174 109.623 C 243.629 109.339,243.594 109.221,242.792 108.340 C 242.402 107.912,241.596 107.016,241.000 106.348 C 240.404 105.680,239.092 104.384,238.083 103.468 C 235.679 101.284,235.837 101.415,233.905 99.989 C 230.805 97.700,229.590 96.893,227.333 95.622 C 225.467 94.571,222.599 93.209,220.929 92.580 C 220.372 92.370,219.317 91.960,218.583 91.669 C 217.850 91.377,216.688 90.989,216.000 90.805 C 212.436 89.855,210.317 89.363,209.417 89.279 C 208.867 89.227,207.479 89.074,206.333 88.939 C 205.188 88.804,203.256 88.641,202.042 88.575 L 199.833 88.457 199.833 105.618 " stroke="none" fill="#f9c02e" fill-rule="evenodd"></path><path id="path17" d="" stroke="none" fill="#dbdb49" fill-rule="evenodd"></path><path id="path18" d="" stroke="none" fill="#00ffff" fill-rule="evenodd"></path><path id="path19" d="" stroke="none" fill="#ffff00" fill-rule="evenodd"></path></g></svg>